<?xml version="1.0" encoding="utf-8"?>
<!-- Generator: Adobe Illustrator 27.0.1, SVG Export Plug-In . SVG Version: 6.00 Build 0)  -->
<svg version="1.1" id="Layer_1" xmlns="http://www.w3.org/2000/svg" xmlns:xlink="http://www.w3.org/1999/xlink" x="0px" y="0px"
	 viewBox="0 0 187 187" style="enable-background:new 0 0 187 187;" xml:space="preserve">
<style type="text/css">
	.st0{fill:#05273A;}
</style>
<g>
	<path class="st0" d="M113.35,110.63c1.31-20.73-0.53-36.78-3.78-49.12c-4.25-16.14-10.93-25.92-16.16-31.5
		c-1.37-1.47-2.65-2.65-3.75-3.58c-1.11,0.93-2.39,2.11-3.76,3.58c-5.19,5.53-11.8,15.21-16.06,31.12
		c-3.31,12.38-5.2,28.55-3.88,49.5c0,0,0.07,0.8,0.26,2.17c0.6,4.18,2.41,13.63,7.15,21.32c2.87,4.66,6.81,8.67,12.22,10.49V114.6
		c0-2.19,1.78-3.97,3.97-3.97c1.1,0,2.09,0.45,2.81,1.16c0.72,0.72,1.16,1.71,1.16,2.81v30.07c5.61-1.82,9.67-6,12.58-10.83
		c4.62-7.64,6.38-16.91,6.98-21.04C113.28,111.43,113.35,110.63,113.35,110.63z M77.8,62.37c3.28-11.83,7.9-19.6,11.86-24.49
		c3.98,4.93,8.65,12.78,11.94,24.77C92.88,63.54,84.74,63.21,77.8,62.37z"/>
	<path class="st0" d="M59.93,112.8c-8.14,0-14.74,6.6-14.74,14.74v27.26l24.34-17.86c-5.65-8.98-7.55-19.89-8.1-24.14H59.93z"/>
	<path class="st0" d="M119.93,112.8h-2.05c-0.55,4.28-2.43,14.97-7.92,23.87l24.7,18.13v-27.26
		C134.66,119.4,128.07,112.8,119.93,112.8z"/>
</g>
</svg>
